<svg xmlns="http://www.w3.org/2000/svg" width="32" height="36.571" viewBox="0 0 32 36.571">
  <path id="Icon_awesome-calculator" data-name="Icon awesome-calculator" d="M28.571,0H3.429A3.515,3.515,0,0,0,0,3.429V33.143a3.515,3.515,0,0,0,3.429,3.429H28.571A3.515,3.515,0,0,0,32,33.143V3.429A3.515,3.515,0,0,0,28.571,0ZM9.143,31.086A.983.983,0,0,1,8.229,32H5.486a.983.983,0,0,1-.914-.914V28.343a.983.983,0,0,1,.914-.914H8.229a.983.983,0,0,1,.914.914Zm0-9.143a.983.983,0,0,1-.914.914H5.486a.983.983,0,0,1-.914-.914V19.2a.983.983,0,0,1,.914-.914H8.229a.983.983,0,0,1,.914.914Zm9.143,9.143a.983.983,0,0,1-.914.914H14.629a.983.983,0,0,1-.914-.914V28.343a.983.983,0,0,1,.914-.914h2.743a.983.983,0,0,1,.914.914Zm0-9.143a.983.983,0,0,1-.914.914H14.629a.983.983,0,0,1-.914-.914V19.2a.983.983,0,0,1,.914-.914h2.743a.983.983,0,0,1,.914.914Zm9.143,9.143a.983.983,0,0,1-.914.914H23.771a.983.983,0,0,1-.914-.914V19.2a.983.983,0,0,1,.914-.914h2.743a.983.983,0,0,1,.914.914V31.086Zm0-18.286a.983.983,0,0,1-.914.914H5.486a.983.983,0,0,1-.914-.914V5.486a.983.983,0,0,1,.914-.914H26.514a.983.983,0,0,1,.914.914Z" fill="#e4e4e4"/>
</svg>
