<svg xmlns="http://www.w3.org/2000/svg" xmlns:xlink="http://www.w3.org/1999/xlink" width="131.723" height="108.985" viewBox="0 0 131.723 108.985">
  <defs>
    <clipPath id="clip-path">
      <rect width="17.333" height="2.57" fill="none"/>
    </clipPath>
    <clipPath id="clip-path-2">
      <rect width="25.878" height="19.927" fill="none"/>
    </clipPath>
  </defs>
  <g id="Group_14" data-name="Group 14" transform="translate(0 -35.372)">
    <path id="Path_133" data-name="Path 133" d="M492.02,146.935H425.042a.963.963,0,0,0-.962.962v24.21H440.29a1.657,1.657,0,0,1,1.655,1.655v20.483H492.02a.961.961,0,0,0,.732-.338.224.224,0,0,0,.021-.026.9.9,0,0,0,.138-.233.939.939,0,0,0,.073-.365V147.9A.963.963,0,0,0,492.02,146.935Z" transform="translate(-361.26 -111.563)" fill="#f2f2f2"/>
    <rect id="Rectangle_26" data-name="Rectangle 26" width="68.903" height="0.596" transform="translate(62.82 39.828)" fill="#ccc"/>
    <g id="Repeat_Grid_2" data-name="Repeat Grid 2" transform="translate(64.704 36.681)" clip-path="url(#clip-path)">
      <g transform="translate(-64.704 -36.681)">
        <circle id="Ellipse_17" data-name="Ellipse 17" cx="1.285" cy="1.285" r="1.285" transform="translate(64.704 36.681)" fill="#ccc"/>
      </g>
      <g transform="translate(-59.704 -36.681)">
        <circle id="Ellipse_17-2" data-name="Ellipse 17" cx="1.285" cy="1.285" r="1.285" transform="translate(64.704 36.681)" fill="#ccc"/>
      </g>
      <g transform="translate(-54.704 -36.681)">
        <circle id="Ellipse_17-3" data-name="Ellipse 17" cx="1.285" cy="1.285" r="1.285" transform="translate(64.704 36.681)" fill="#ccc"/>
      </g>
    </g>
    <path id="Path_134" data-name="Path 134" d="M607.453,236.315H568.905a1.606,1.606,0,0,0,0,3.212h38.548a1.606,1.606,0,0,0,0-3.212Zm0,2.965H568.905a1.359,1.359,0,1,1,0-2.718h38.548a1.359,1.359,0,1,1,0,2.718Z" transform="translate(-491.022 -193.96)" fill="#ccc"/>
    <g id="Repeat_Grid_1" data-name="Repeat Grid 1" transform="translate(93.159 54.099)" clip-path="url(#clip-path-2)">
      <g transform="translate(-96.159 -51.099)">
        <path id="Path_135" data-name="Path 135" d="M687.653,339.885H663.765a1,1,0,0,0,0,1.991h23.888a1,1,0,0,0,0-1.991Z" transform="translate(-566.611 -288.786)" fill="#fff"/>
      </g>
      <g transform="translate(-96.159 -44.099)">
        <path id="Path_135-2" data-name="Path 135" d="M687.653,339.885H663.765a1,1,0,0,0,0,1.991h23.888a1,1,0,0,0,0-1.991Z" transform="translate(-566.611 -288.786)" fill="#fff"/>
      </g>
      <g transform="translate(-96.159 -37.099)">
        <path id="Path_135-3" data-name="Path 135" d="M687.653,339.885H663.765a1,1,0,0,0,0,1.991h23.888a1,1,0,0,0,0-1.991Z" transform="translate(-566.611 -288.786)" fill="#fff"/>
      </g>
    </g>
    <path id="Path_138" data-name="Path 138" d="M492.056,318.385h-18.7a1.515,1.515,0,0,0-1.513,1.513v5.951h.263V319.9a1.252,1.252,0,0,1,1.25-1.25h18.7a1.251,1.251,0,0,1,1.25,1.25v18.7a1.251,1.251,0,0,1-1.25,1.25h-5.185v.263h5.185a1.514,1.514,0,0,0,1.513-1.513V319.9A1.514,1.514,0,0,0,492.056,318.385Z" transform="translate(-405.297 -266.422)" fill="#ccc"/>
    <path id="Path_139" data-name="Path 139" d="M240,403.533c-.12,0-5.235-.35-5.365-.354l.459-4.587,2.913-.088,5.567-10.311a2.64,2.64,0,0,1,1.816-3.727c3.3-.75,4.434,4.442,1.124,5.133l-4.6,12.6A2.042,2.042,0,0,1,240,403.533Z" transform="translate(-214.767 -327.66)" fill="#ffb8b8"/>
    <path id="Path_140" data-name="Path 140" d="M188.329,445.656c-4.867.012-5.294-7.344-.416-7.862,12.9-.779,11.267-4.019,12.246,5.537a1.076,1.076,0,0,1-.954,1.184l-10.453,1.119A3.979,3.979,0,0,1,188.329,445.656Z" transform="translate(-176.577 -367.42)" fill="#6c63ff"/>
    <path id="Path_141" data-name="Path 141" d="M168.38,374.632c6.705,3.816,1.2,13.883-5.63,10.3C156.046,381.114,161.55,371.047,168.38,374.632Z" transform="translate(-157.74 -319.653)" fill="#ffb8b8"/>
    <path id="Path_142" data-name="Path 142" d="M70.047,556.832h2.929l1.394-11.3H70.047Z" transform="translate(-53.311 -415.196)" fill="#ffb8b8"/>
    <path id="Path_143" data-name="Path 143" d="M218.892,739.634H228.1c-.035-4.75-6.192-3.381-9.206-3.556Z" transform="translate(-202.784 -595.278)" fill="#2f2e41"/>
    <path id="Path_144" data-name="Path 144" d="M17.047,556.832h2.929l1.394-11.3H17.047Z" transform="translate(-12.974 -415.196)" fill="#ffb8b8"/>
    <path id="Path_145" data-name="Path 145" d="M165.892,739.634H175.1c-.035-4.75-6.192-3.381-9.206-3.556Z" transform="translate(-162.446 -595.278)" fill="#2f2e41"/>
    <path id="Path_146" data-name="Path 146" d="M163.624,592.3c-.708-.194-4.555.393-5.009-.378-1.585-15.891-1.233-31.442,2.286-39.988l12.1-.741c2.706,4.94,8.926,37.719,5.174,39.712l-4.825.172a1.2,1.2,0,0,1-1.2-.914L168.111,567.2c-1.005-1.405-2.981,24.184-3.307,24.089a1.189,1.189,0,0,1-1.18,1.012Z" transform="translate(-156.222 -454.606)" fill="#2f2e41"/>
    <path id="Path_147" data-name="Path 147" d="M158.447,463.011c-6.11-6.392-2.212-23.528-2.41-23.164.017-.42,1.4-6.885,4.98-7.946,2.84-.937,5.983,1.866,6.371,4.7l4.254,25.123a.884.884,0,0,1-.242.76C171.609,463.137,158.746,462.88,158.447,463.011Z" transform="translate(-154.151 -363.677)" fill="#6c63ff"/>
    <path id="Path_148" data-name="Path 148" d="M157.749,372.427a3.846,3.846,0,0,0,1.113-1.451c1.645-.938,3.536,1.331,5.276.484,4.92-4.723-.137-6.117-4.669-6.366a3.7,3.7,0,0,0-2.79.875c-9.052-.691-4.711,11.345,1,12.934,1.009.442,1.765-.452.876-1.265C157.327,376.348,155.8,373.751,157.749,372.427Z" transform="translate(-151.471 -312.952)" fill="#2f2e41"/>
    <path id="Path_149" data-name="Path 149" d="M327.278,373.065H282.743a2.767,2.767,0,0,0-2.763,2.763v56.237a2.767,2.767,0,0,0,2.763,2.763h44.535a2.767,2.767,0,0,0,2.763-2.763V375.828A2.767,2.767,0,0,0,327.278,373.065Zm2.438,59a2.441,2.441,0,0,1-2.438,2.438H282.743a2.441,2.441,0,0,1-2.438-2.438V375.828a2.441,2.441,0,0,1,2.438-2.438h44.535a2.441,2.441,0,0,1,2.438,2.438Z" transform="translate(-249.276 -313.038)" fill="#3f3d56"/>
    <path id="Path_150" data-name="Path 150" d="M207.259,494.057c-2.158.244-3.1-4.776-3.93-6.056l4.3-1.669,1.4,2.557,11.714.291a2.543,2.543,0,0,1,.228-.268h0c2.323-2.432,6.106,1.212,3.792,3.639a2.637,2.637,0,0,1-3.941-.114C220.527,492.459,207.542,494.065,207.259,494.057Z" transform="translate(-190.939 -405.244)" fill="#ffb8b8"/>
    <path id="Path_151" data-name="Path 151" d="M183.167,459.607c-.718.692-6.234-9.025-6.636-9.3-2.787-4.332,3.774-8.608,6.609-4.3l5.733,8.811a1.076,1.076,0,0,1-.315,1.487C188.3,456.428,183.351,459.87,183.167,459.607Z" transform="translate(-170.029 -373.191)" fill="#6c63ff"/>
    <path id="Path_152" data-name="Path 152" d="M362.383,590.5H339.957c-2.291-.012-2.3-3.917,0-3.931h22.425C364.672,586.577,364.684,590.482,362.383,590.5Z" transform="translate(-295.614 -493.529)" fill="#ccc"/>
    <path id="Path_153" data-name="Path 153" d="M362.556,638.1H339.97a1.769,1.769,0,0,1,0-3.537h22.586A1.769,1.769,0,0,1,362.556,638.1Z" transform="translate(-295.614 -533.061)" fill="#ccc"/>
    <path id="Path_154" data-name="Path 154" d="M362.383,686.077H339.957a1.757,1.757,0,0,1,0-3.512h22.425A1.757,1.757,0,0,1,362.383,686.077Z" transform="translate(-295.614 -573.593)" fill="#ccc"/>
    <path id="Path_155" data-name="Path 155" d="M557.19,361.485a4.21,4.21,0,1,1,4.21-4.21A4.21,4.21,0,0,1,557.19,361.485Z" transform="translate(-478.051 -296.817)" fill="#6d5a8d"/>
    <path id="Path_156" data-name="Path 156" d="M570.028,366.751h-1.781v-2.024a.162.162,0,0,0-.324,0v2.024h-1.781a.162.162,0,1,0,0,.324h1.781V369.1a.162.162,0,0,0,.324,0v-2.024h1.781a.162.162,0,1,0,0-.324Z" transform="translate(-488.946 -306.569)" fill="#fff"/>
    <path id="Path_157" data-name="Path 157" d="M361.471,449.43H339.723a2.245,2.245,0,0,1-2.243-2.243V435.008a2.245,2.245,0,0,1,2.243-2.243h21.749a2.245,2.245,0,0,1,2.243,2.243v12.179a2.245,2.245,0,0,1-2.243,2.243Z" transform="translate(-296.038 -364.475)" fill="#6d5a8d"/>
  </g>
</svg>
