<svg xmlns="http://www.w3.org/2000/svg" width="99.136" height="106.67" viewBox="0 0 99.136 106.67">
  <g id="Group_235" data-name="Group 235" transform="translate(-0.004 0)">
    <path id="Path_6170" data-name="Path 6170" d="M373.888,199.558l-42.853,11.035a5.666,5.666,0,0,1-6.893-4.07L311.182,156.2a5.666,5.666,0,0,1,4.07-6.893l39.868-10.266,10.2,4.568,12.634,49.06A5.666,5.666,0,0,1,373.888,199.558Z" transform="translate(-310.999 -139.037)" fill="#f2f2f2"/>
    <path id="Path_6171" data-name="Path 6171" d="M323.529,159.19a4.035,4.035,0,0,0-2.9,4.908l12.96,50.327a4.035,4.035,0,0,0,4.908,2.9l42.853-11.035a4.035,4.035,0,0,0,2.9-4.908l-12.438-48.3-8.968-4.015Z" transform="translate(-318.87 -147.346)" fill="#fff"/>
    <path id="Path_6172" data-name="Path 6172" d="M577.842,144.515l-6.632,1.708a1.885,1.885,0,0,1-2.3-1.355l-1.261-4.9a.118.118,0,0,1,.162-.137l10.046,4.461a.118.118,0,0,1-.018.222Z" transform="translate(-523.626 -139.687)" fill="#f2f2f2"/>
    <path id="Path_6173" data-name="Path 6173" d="M506.8,408.8l-19.51,5.024a.943.943,0,1,1-.47-1.825l19.51-5.024a.943.943,0,1,1,.47,1.825Z" transform="translate(-456.076 -360.996)" fill="#ccc"/>
    <path id="Path_6174" data-name="Path 6174" d="M515.193,421.11,491.917,427.1a.943.943,0,0,1-.47-1.826l23.275-5.994a.943.943,0,1,1,.47,1.825Z" transform="translate(-459.908 -371.193)" fill="#ccc"/>
    <circle id="Ellipse_44" data-name="Ellipse 44" cx="3.331" cy="3.331" r="3.331" transform="translate(19.922 52.219)" fill="#e6e6e6"/>
    <path id="Path_6175" data-name="Path 6175" d="M425.651,237.314l-25.912,6.67a2.919,2.919,0,0,1-3.551-2.1l-5.43-21.095a2.919,2.919,0,0,1,2.1-3.551l25.912-6.67a2.919,2.919,0,0,1,3.551,2.1l5.43,21.095a2.919,2.919,0,0,1-2.1,3.551Z" transform="translate(-376.999 -198.226)" fill="#fff"/>
    <path id="Path_6176" data-name="Path 6176" d="M425.651,237.314l-25.912,6.67a2.919,2.919,0,0,1-3.551-2.1l-5.43-21.095a2.919,2.919,0,0,1,2.1-3.551l25.912-6.67a2.919,2.919,0,0,1,3.551,2.1l5.43,21.095a2.919,2.919,0,0,1-2.1,3.551Zm-32.71-19.74a2.576,2.576,0,0,0-1.85,3.133l5.43,21.095a2.576,2.576,0,0,0,3.133,1.85l25.912-6.67a2.576,2.576,0,0,0,1.85-3.133l-5.43-21.095a2.576,2.576,0,0,0-3.133-1.85Z" transform="translate(-376.999 -198.226)" fill="#e6e6e6"/>
    <path id="Path_411" data-name="Path 411" d="M480.829,247.889l-13.077,3.366a.468.468,0,0,1-.567-.295.451.451,0,0,1,.318-.573l13.312-3.427c.538.272.4.83.015.928Z" transform="translate(-440.375 -228.45)" fill="#f2f2f2"/>
    <path id="Path_412" data-name="Path 412" d="M484.272,261.263l-13.077,3.366a.468.468,0,0,1-.567-.295.451.451,0,0,1,.318-.573l13.312-3.427c.538.272.4.83.015.928Z" transform="translate(-443.228 -239.53)" fill="#f2f2f2"/>
    <path id="Path_413" data-name="Path 413" d="M431.317,269.654l-3.991,1.027a.508.508,0,0,1-.618-.365l-1.212-4.71a.508.508,0,0,1,.365-.618l3.991-1.027a.508.508,0,0,1,.618.365l1.212,4.71A.508.508,0,0,1,431.317,269.654Z" transform="translate(-405.841 -242.521)" fill="#e6e6e6"/>
    <path id="Path_414" data-name="Path 414" d="M457.86,288.7,437.9,293.84a.468.468,0,0,1-.567-.295.451.451,0,0,1,.318-.573l20.193-5.2C458.383,288.047,458.242,288.6,457.86,288.7Z" transform="translate(-415.645 -262.264)" fill="#f2f2f2"/>
    <path id="Path_415" data-name="Path 415" d="M461.3,302.081l-19.958,5.138a.468.468,0,0,1-.567-.295.451.451,0,0,1,.318-.573l20.193-5.2c.538.272.4.83.015.928Z" transform="translate(-418.498 -273.347)" fill="#f2f2f2"/>
    <path id="Path_416" data-name="Path 416" d="M464.746,315.45l-19.958,5.138a.468.468,0,0,1-.567-.295.451.451,0,0,1,.318-.573l20.193-5.2c.538.272.4.83.015.928Z" transform="translate(-421.35 -284.423)" fill="#f2f2f2"/>
    <path id="Path_417" data-name="Path 417" d="M468.189,328.827l-19.958,5.138a.469.469,0,0,1-.567-.295.451.451,0,0,1,.318-.573l20.193-5.2C468.712,328.171,468.571,328.729,468.189,328.827Z" transform="translate(-424.203 -295.506)" fill="#f2f2f2"/>
    <path id="Path_418" data-name="Path 418" d="M471.631,342.2l-19.958,5.138a.468.468,0,0,1-.567-.295.451.451,0,0,1,.318-.573l20.193-5.2c.538.272.4.83.015.928Z" transform="translate(-427.054 -306.583)" fill="#f2f2f2"/>
    <path id="Path_395" data-name="Path 395" d="M441.5,456.119a.346.346,0,0,1-.218-.015l0,0-.908-.385a.348.348,0,0,1,.272-.64l.588.25.771-1.813a.348.348,0,0,1,.456-.184h0l0,.012,0-.012a.348.348,0,0,1,.184.456l-.907,2.131a.348.348,0,0,1-.234.2Z" transform="translate(-418.005 -399.401)" fill="#fff"/>
    <path id="Path_6177" data-name="Path 6177" d="M532.386,298H488.135a5.666,5.666,0,0,1-5.66-5.66V240.375a5.667,5.667,0,0,1,5.66-5.66H529.3l8.743,6.968v50.661A5.666,5.666,0,0,1,532.386,298Z" transform="translate(-453.061 -218.305)" fill="#e6e6e6"/>
    <path id="Path_6178" data-name="Path 6178" d="M496,244.214a4.035,4.035,0,0,0-4.031,4.031v51.969A4.035,4.035,0,0,0,496,304.245h44.251a4.035,4.035,0,0,0,4.031-4.031V250.338l-7.683-6.124Z" transform="translate(-460.93 -226.175)" fill="#fff"/>
    <path id="Path_6179" data-name="Path 6179" d="M621.424,323.213H601.277a.943.943,0,1,1,0-1.885h20.147a.943.943,0,0,1,0,1.885Z" transform="translate(-550.706 -290.062)" fill="#6d5a8d"/>
    <path id="Path_6180" data-name="Path 6180" d="M625.312,341.76H601.277a.943.943,0,1,1,0-1.885h24.035a.943.943,0,1,1,0,1.885Z" transform="translate(-550.706 -305.428)" fill="#6d5a8d"/>
    <path id="Path_6181" data-name="Path 6181" d="M621.428,404.443H601.281a.942.942,0,1,0,0,1.885h20.146a.942.942,0,1,0,0-1.885Z" transform="translate(-550.709 -358.922)" fill="#ccc"/>
    <path id="Path_6182" data-name="Path 6182" d="M625.316,422.993H601.281a.942.942,0,1,0,0,1.885h24.034a.942.942,0,1,0,0-1.885Z" transform="translate(-550.709 -374.29)" fill="#ccc"/>
    <path id="Path_6183" data-name="Path 6183" d="M621.424,489.448H601.277a.943.943,0,1,1,0-1.885h20.147a.943.943,0,0,1,0,1.885Z" transform="translate(-550.706 -427.785)" fill="#ccc"/>
    <path id="Path_6184" data-name="Path 6184" d="M625.312,508H601.277a.943.943,0,1,1,0-1.885h24.035a.943.943,0,1,1,0,1.885Z" transform="translate(-550.706 -443.151)" fill="#ccc"/>
    <circle id="Ellipse_44-2" data-name="Ellipse 44" cx="3.331" cy="3.331" r="3.331" transform="translate(38.851 30.468)" fill="#6d5a8d"/>
    <path id="Path_395-2" data-name="Path 395" d="M549.528,331.267a.345.345,0,0,1-.208-.069l0,0-.783-.6a.348.348,0,0,1,.423-.552l.507.389,1.2-1.563a.348.348,0,0,1,.488-.064h0l-.008.01.008-.01a.348.348,0,0,1,.064.488l-1.409,1.838a.348.348,0,0,1-.277.136Z" transform="translate(-507.676 -296.198)" fill="#fff"/>
    <path id="Path_6185" data-name="Path 6185" d="M546.152,403.117a3.331,3.331,0,0,1-3.331,3.333.72.72,0,0,1-.086,0,3.331,3.331,0,1,1,3.417-3.329Z" transform="translate(-500.297 -355.063)" fill="#ccc"/>
    <circle id="Ellipse_44-3" data-name="Ellipse 44" cx="3.331" cy="3.331" r="3.331" transform="translate(38.851 58.979)" fill="#ccc"/>
    <path id="Path_6186" data-name="Path 6186" d="M763.3,242.543h-6.848a1.885,1.885,0,0,1-1.885-1.885V235.6a.118.118,0,0,1,.191-.092l8.616,6.825a.118.118,0,0,1-.073.21Z" transform="translate(-678.481 -218.94)" fill="#ccc"/>
    <path id="Path_6187" data-name="Path 6187" d="M559.328,403.348A3.331,3.331,0,0,1,556,406.68a.722.722,0,0,1-.086,0,7.212,7.212,0,0,1,.646-6.614A3.333,3.333,0,0,1,559.328,403.348Z" transform="translate(-513.473 -355.293)" fill="#6d5a8d"/>
    <path id="Path_6188" data-name="Path 6188" d="M600.334,405.386a.945.945,0,0,1,.943-.943h5.02a7.134,7.134,0,0,1,.619,1.885h-5.639a.944.944,0,0,1-.943-.941Z" transform="translate(-550.705 -358.922)" fill="#6d5a8d"/>
    <path id="Path_6189" data-name="Path 6189" d="M607.037,422.993a7.189,7.189,0,0,1-.25,1.885h-5.506a.942.942,0,1,1,0-1.885Z" transform="translate(-550.709 -374.29)" fill="#6d5a8d"/>
    <path id="Path_6190" data-name="Path 6190" d="M644.6,447.833a1.029,1.029,0,0,1-1.414.343l-12.007-7.324a1.029,1.029,0,0,1,1.072-1.757l12.007,7.324A1.029,1.029,0,0,1,644.6,447.833Z" transform="translate(-575.853 -387.506)" fill="#3f3d56"/>
    <path id="Path_6191" data-name="Path 6191" d="M568.088,387.589a8.233,8.233,0,1,1-2.741-11.316,8.233,8.233,0,0,1,2.741,11.316Zm-12.3-7.5a6.175,6.175,0,1,0,8.487-2.056,6.174,6.174,0,0,0-8.487,2.056Z" transform="translate(-511.345 -334.585)" fill="#3f3d56"/>
    <circle id="Ellipse_23" data-name="Ellipse 23" cx="4.213" cy="4.213" r="4.213" transform="translate(78.908 41.612)" fill="#a0616a"/>
    <path id="Path_6192" data-name="Path 6192" d="M793.579,465.585a1.887,1.887,0,0,1,1.427-2.427,1.8,1.8,0,0,1,.25-.031L799.694,456l-4.053-3.853a1.618,1.618,0,1,1,2.25-2.325l5.6,5.518.011.014a1.466,1.466,0,0,1-.1,1.747l-6.217,7.353a1.776,1.776,0,0,1,.046.179,1.887,1.887,0,0,1-1.694,2.25q-.08.007-.16.007A1.893,1.893,0,0,1,793.579,465.585Z" transform="translate(-710.731 -396.144)" fill="#a0616a"/>
    <path id="Path_6193" data-name="Path 6193" d="M429.162,569.823h-2.1l-1-8.111h3.1Z" transform="translate(-352.98 -465.37)" fill="#a0616a"/>
    <path id="Path_6194" data-name="Path 6194" d="M725.527,746.759h-6.78v-.086a2.639,2.639,0,0,1,2.639-2.639h4.141Z" transform="translate(-648.808 -640.268)" fill="#2f2e41"/>
    <path id="Path_6195" data-name="Path 6195" d="M533.084,558.388l-1.807,1.076-5.009-6.457,2.667-1.588Z" transform="translate(-436.001 -456.842)" fill="#a0616a"/>
    <path id="Path_6196" data-name="Path 6196" d="M855.623,728.39l-5.826,3.469-.044-.074a2.639,2.639,0,0,1,.917-3.618h0l3.558-2.119Z" transform="translate(-757.037 -625.367)" fill="#2f2e41"/>
    <path id="Path_6197" data-name="Path 6197" d="M730.335,542.066c-1.409-16.587-2.247-32,2.9-38.281l.04-.049,8.666,3.467.014.031c.029.064,2.911,6.4,2.239,10.667l2.138,9.833,6.97,11.67a.772.772,0,0,1-.352,1.1l-3.029,1.333a.775.775,0,0,1-.969-.3l-7.582-12.363-4.282-9.482a.257.257,0,0,0-.49.079l-2.374,22.314a.771.771,0,0,1-.768.69H731.1A.777.777,0,0,1,730.335,542.066Z" transform="translate(-657.521 -441.184)" fill="#2f2e41"/>
    <path id="Path_6198" data-name="Path 6198" d="M751.838,450.349l-.041-.02-.006-.045a14.635,14.635,0,0,1,1.139-7.482,5.941,5.941,0,0,1,6.9-3.558h0a5.934,5.934,0,0,1,3.784,2.91,5.87,5.87,0,0,1,.407,4.7c-1.361,3.979-3.126,7.7-3.144,7.739l-.037.078Z" transform="translate(-676.092 -387.617)" fill="#6c63ff"/>
    <path id="Path_6199" data-name="Path 6199" d="M694.018,453.8a1.887,1.887,0,0,1,2.773.487,1.8,1.8,0,0,1,.116.224l8.225,1.662,2.19-5.146a1.618,1.618,0,0,1,2.965,1.294l-3.209,7.175-.009.015a1.465,1.465,0,0,1-1.672.516l-9.065-3.249a1.765,1.765,0,0,1-.152.106,1.887,1.887,0,0,1-2.7-.8q-.035-.073-.063-.147A1.893,1.893,0,0,1,694.018,453.8Z" transform="translate(-627.727 -396.708)" fill="#a0616a"/>
    <path id="Path_6200" data-name="Path 6200" d="M786.149,382.07a3.434,3.434,0,0,0-1.778-1.643,5.788,5.788,0,0,0-3.14.266,5.818,5.818,0,0,1-2.441.144,2.741,2.741,0,0,1-1.95-1.363c-.539-1.081-.085-2.37-.118-3.578a4.345,4.345,0,0,0-5.475-4.084,2.167,2.167,0,0,0-2.508.451,2.916,2.916,0,0,0-2.916,2.916h2.788a2.77,2.77,0,0,0,.421,2.046c.492.723,1.348,1.246,1.513,2.105a2.69,2.69,0,0,1-1,2.227,4.628,4.628,0,0,0-1.468,2.032,2.52,2.52,0,0,0,.361,1.812,5.9,5.9,0,0,0,1.267,1.4,18.593,18.593,0,0,0,7.725,3.952,9.183,9.183,0,0,0,6.067-.281,6.024,6.024,0,0,0,2.652-8.4Z" transform="translate(-687.81 -331.735)" fill="#2f2e41"/>
    <path id="Path_6201" data-name="Path 6201" d="M729.76,759.306H697.172a.171.171,0,1,1,0-.343H729.76a.171.171,0,1,1,0,.343Z" transform="translate(-630.792 -652.636)" fill="#ccc"/>
  </g>
</svg>
