<svg xmlns="http://www.w3.org/2000/svg" width="17" height="22.667" viewBox="0 0 17 22.667">
  <path id="Icon_awesome-clipboard-list" data-name="Icon awesome-clipboard-list" d="M14.875,2.833H11.333a2.833,2.833,0,1,0-5.667,0H2.125A2.126,2.126,0,0,0,0,4.958V20.542a2.126,2.126,0,0,0,2.125,2.125h12.75A2.126,2.126,0,0,0,17,20.542V4.958A2.126,2.126,0,0,0,14.875,2.833ZM4.25,18.771a1.062,1.062,0,1,1,1.062-1.062A1.06,1.06,0,0,1,4.25,18.771Zm0-4.25a1.063,1.063,0,1,1,1.062-1.062A1.06,1.06,0,0,1,4.25,14.521Zm0-4.25A1.063,1.063,0,1,1,5.312,9.208,1.06,1.06,0,0,1,4.25,10.271Zm4.25-8.5A1.063,1.063,0,1,1,7.438,2.833,1.06,1.06,0,0,1,8.5,1.771Zm5.667,16.292a.355.355,0,0,1-.354.354H7.438a.355.355,0,0,1-.354-.354v-.708A.355.355,0,0,1,7.438,17h6.375a.355.355,0,0,1,.354.354Zm0-4.25a.355.355,0,0,1-.354.354H7.438a.355.355,0,0,1-.354-.354V13.1a.355.355,0,0,1,.354-.354h6.375a.355.355,0,0,1,.354.354Zm0-4.25a.355.355,0,0,1-.354.354H7.438a.355.355,0,0,1-.354-.354V8.854A.355.355,0,0,1,7.438,8.5h6.375a.355.355,0,0,1,.354.354Z" fill="#fff"/>
</svg>
