<svg xmlns="http://www.w3.org/2000/svg" width="22" height="16.5" viewBox="0 0 22 16.5">
  <path id="Icon_awesome-chart-line" data-name="Icon awesome-chart-line" d="M21.313,18.25H2.75V5.187A.687.687,0,0,0,2.063,4.5H.688A.687.687,0,0,0,0,5.187V19.625A1.375,1.375,0,0,0,1.375,21H21.313A.687.687,0,0,0,22,20.313V18.938A.687.687,0,0,0,21.313,18.25ZM19.938,5.875H14.865a1.031,1.031,0,0,0-.729,1.76l1.392,1.392-3.153,3.153L9.222,9.028a1.374,1.374,0,0,0-1.944,0L4.327,11.98a.688.688,0,0,0,0,.972l.972.972a.688.688,0,0,0,.972,0l1.979-1.98L11.4,15.1a1.374,1.374,0,0,0,1.944,0l4.125-4.125,1.392,1.392a1.031,1.031,0,0,0,1.76-.729V6.562A.687.687,0,0,0,19.938,5.875Z" transform="translate(0 -4.5)" fill="#fff"/>
</svg>
